<svg xmlns="http://www.w3.org/2000/svg" x="0" y="0" version="1.1" viewBox="54 37 720 720" xml:space="preserve" class="pattern pattern--leaf pattern--color-primary">
    <path d="M691.95 433.165c25.439-6.84 39.12-30.479 39.54-31.229-.42.718-14.1 24.389-39.54 31.229z" class="st0" fill="green"></path>
    <path fill="#65bf44" d="M149.04 278.305c40.95 2.37 133.02 2.67 133.02 2.67 149.7 5.52 216.12 87.69 271.65 143.25 15 15 36.6 37.92 47.61 53.7 10.41-15.149 20.489-27.36 31.71-38.61 13.05-13.049 51.479-32.969 87.42-42.629 34.71-9.33 53.52-41.97 53.52-41.97 0 54.51-25.56 76.08-51.81 87.75 0 0 12.6-23.4 9.3-40.5-.42.75-14.1 24.391-39.54 31.23-2.07.539-4.14 1.17-6.24 1.8.271-2.521.45-5.22.45-8.13 0 0-3.24 5.609-9.39 11.1-4.23 3.78-9.84 7.53-16.71 9.36a139.09 139.09 0 00-15.841 5.399c-11.88 4.86-22.439 10.92-26.88 15.36-5.489 5.46-10.949 11.43-16.02 18.81-5.37-7.68-15.57-17.069-22.89-24.359-14.73-14.73-29.101-34.62-51.9-49.71-33.3-33.6-78-65.88-161.311-65.88 0 0-68.64-.21-99.149-1.98-41.73-2.43-68.01-8.52-71.01-11.91-.03-.03.03.03 0 0s.03.03 0 0c32.97 59.19 53.46 92.61 69.75 111.509-11.79 0-23.46.031-33.42.061-63.63.27-75.15 1.32-177.36-182.31 3.001 4.499 38.041 12.689 95.041 15.989z" class="st1"></path>
    <path fill="#51af2f"  d="M335.1 381.685c.93 2.19 18.12 6.27 46.38 7.92 19.949 1.14 64.859 1.29 64.859 1.29 36.09 0 61.05 9.27 80.19 21.9 22.83 15.09 37.17 34.98 51.899 49.71 7.32 7.32 17.521 16.68 22.891 24.36 5.069-7.38 10.529-13.351 16.02-18.811 4.44-4.439 15-10.529 26.88-15.359 5.13-2.1 10.561-3.99 15.84-5.4 6.87-1.859 12.48-5.58 16.71-9.359 6.15-5.49 9.391-11.101 9.391-11.101 0 2.91-.15 5.58-.45 8.13-3.69 33.03-30.06 36.03-43.71 41.37-14.85 5.82-28.62 17.85-40.68 35.43-11.971-17.43-26.61-27.42-40.65-35.43-10.38-5.94-28.65-6.93-46.32-6.72-13.409.18-26.46 1.08-35.399 1.08 0 0-35.91-.09-57.36 0-8.729.029-15.45.09-21.689-1.801-15.962-4.919-28.922-22.769-64.802-87.209z" class="st0"></path>
    <g class="st2">
      <path fill="#5bb739"  d="M560.7 476.305c14.04 8.011 28.68 18 40.649 35.431 12.061-17.58 25.83-29.61 40.681-35.431 13.62-5.34 40.02-8.34 43.71-41.369 2.069-.631 4.17-1.261 6.24-1.801 25.47-6.84 39.119-30.479 39.54-31.229 3.3 17.13-9.301 40.5-9.301 40.5-14.31 24.66-41.76 28.77-57.81 35.069-22.71 8.91-44.55 27.301-63.03 54.21-18.3-26.67-39.84-41.909-61.29-54.21-6.72-3.84-15.6-6.33-25.649-7.89 17.58-.21 35.85.78 46.26 6.72zM195.06 333.025c0 .03-.03 0 0 0 3 3.39 29.28 9.48 71.01 11.91 30.51 1.77 99.15 1.98 99.15 1.98 83.34 0 128.011 32.25 161.311 65.88-19.11-12.63-44.101-21.9-80.19-21.9 0 0-44.88-.15-64.859-1.29-28.261-1.62-45.48-5.73-46.38-7.92 35.85 64.44 48.84 82.29 64.8 87.18-18.66-.03-50.55-.061-72.51.029-26.91.091-41.31.391-62.64-24.359-16.262-18.87-36.752-52.29-69.692-111.51.03.06-.03-.03 0 0z" class="st0"></path>
    </g>
</svg>